<svg xmlns="http://www.w3.org/2000/svg" xmlns:xlink="http://www.w3.org/1999/xlink" width="500" zoomAndPan="magnify" viewBox="0 0 375 374.999991" height="500" preserveAspectRatio="xMidYMid meet" version="1.0"><defs><g/></defs><g fill="#ff3131" fill-opacity="1"><g transform="translate(34.609637, 243.869295)"><g><path d="M -2.859375 0 L -2.859375 -2.1875 C -0.503906 -2.96875 1.789062 -4.503906 4.03125 -6.796875 C 6.269531 -9.097656 8.675781 -13.4375 11.25 -19.8125 L 44.328125 -101.765625 C 45.335938 -104.453125 45.226562 -107.082031 44 -109.65625 L 42.484375 -113.1875 L 55.078125 -118.90625 L 96.390625 -19.65625 C 98.972656 -13.382812 101.296875 -9.097656 103.359375 -6.796875 C 105.429688 -4.503906 107.363281 -2.96875 109.15625 -2.1875 L 109.15625 0 L 83.125 0 L 83.125 -2.1875 C 85.695312 -2.96875 86.757812 -4.503906 86.3125 -6.796875 C 85.863281 -9.097656 84.300781 -13.382812 81.625 -19.65625 L 71.375 -44.328125 L 24.015625 -44.328125 L 14.109375 -19.8125 C 9.847656 -9.175781 10.519531 -3.300781 16.125 -2.1875 L 16.125 0 Z M 25.015625 -46.859375 L 70.359375 -46.859375 L 47.359375 -102.109375 Z M 25.015625 -46.859375 "/></g></g></g><g fill="#ff3131" fill-opacity="1"><g transform="translate(142.252574, 243.869295)"><g><path d="M 45.515625 -26.359375 L 45.515625 -54.75 L 16.796875 -54.75 L 17.796875 -57.09375 L 45.515625 -57.09375 L 45.515625 -84.8125 L 47.859375 -85.8125 L 47.859375 -57.09375 L 76.25 -57.09375 L 75.234375 -54.75 L 47.859375 -54.75 L 47.859375 -27.375 Z M 45.515625 -26.359375 "/></g></g></g><g fill="#ff3131" fill-opacity="1"><g transform="translate(235.957341, 243.869295)"><g><path d="M 8.5625 0 L 8.5625 -2.1875 C 11.132812 -2.96875 12.894531 -4.644531 13.84375 -7.21875 C 14.800781 -9.789062 15.28125 -14.492188 15.28125 -21.328125 L 15.28125 -96.234375 C 15.28125 -103.171875 14.800781 -107.898438 13.84375 -110.421875 C 12.894531 -112.941406 11.132812 -114.59375 8.5625 -115.375 L 8.5625 -117.5625 L 87.65625 -117.5625 L 89.171875 -99.921875 L 87.328125 -99.421875 C 84.523438 -105.015625 81.050781 -108.988281 76.90625 -111.34375 C 72.769531 -113.695312 66.726562 -114.875 58.78125 -114.875 L 29.046875 -114.875 L 29.046875 -65.65625 L 49.03125 -65.65625 C 55.414062 -65.65625 60.367188 -66.078125 63.890625 -66.921875 C 67.421875 -67.765625 70 -69.023438 71.625 -70.703125 C 73.25 -72.378906 74.394531 -74.453125 75.0625 -76.921875 L 77.078125 -76.921875 L 77.078125 -51.390625 L 75.0625 -51.390625 C 74.394531 -53.960938 73.25 -56.085938 71.625 -57.765625 C 70 -59.453125 67.421875 -60.742188 63.890625 -61.640625 C 60.367188 -62.535156 55.414062 -62.984375 49.03125 -62.984375 L 29.046875 -62.984375 L 29.046875 -21.328125 C 29.046875 -14.492188 29.519531 -9.789062 30.46875 -7.21875 C 31.425781 -4.644531 33.191406 -2.96875 35.765625 -2.1875 L 35.765625 0 Z M 8.5625 0 "/></g></g></g><g fill="#000000" fill-opacity="1"><g transform="translate(75.087733, 226.254698)"><g><path d="M 84.78125 -89.953125 C 83.332031 -86.085938 81.785156 -82.269531 80.140625 -78.5 C 62.890625 -39.445312 48.085938 -5.9375 35.734375 22.03125 C 32.847656 22.5625 32.257812 20.859375 33.96875 16.921875 C 37.175781 8.398438 42.800781 -5.15625 50.84375 -23.75 C 58.882812 -42.351562 67.078125 -60.894531 75.421875 -79.375 C 77.109375 -83.144531 78.660156 -86.953125 80.078125 -90.796875 C 80.117188 -90.984375 80.1875 -91.164062 80.28125 -91.34375 C 80.582031 -92.050781 80.832031 -92.816406 81.03125 -93.640625 C 81.238281 -94.472656 81.269531 -95.367188 81.125 -96.328125 C 79.84375 -96.109375 78.675781 -95.738281 77.625 -95.21875 C 77.34375 -95.113281 77.09375 -95.019531 76.875 -94.9375 C 67.039062 -90.851562 56.765625 -85.53125 46.046875 -78.96875 C 35.335938 -72.40625 26.023438 -65.5625 18.109375 -58.4375 C 16.410156 -56.882812 14.765625 -55.265625 13.171875 -53.578125 C 11.585938 -51.890625 10.097656 -50.09375 8.703125 -48.1875 C 7.148438 -46.144531 6.003906 -43.882812 5.265625 -41.40625 C 3.890625 -36.789062 5.257812 -33.285156 9.375 -30.890625 C 12.25 -29.253906 15.117188 -28.160156 17.984375 -27.609375 C 20.847656 -27.054688 23.539062 -26.800781 26.0625 -26.84375 C 28.59375 -26.882812 30.785156 -27.015625 32.640625 -27.234375 C 33.410156 -27.273438 34.078125 -27.328125 34.640625 -27.390625 C 35.003906 -27.429688 35.367188 -27.414062 35.734375 -27.34375 C 36.109375 -27.269531 36.441406 -27.0625 36.734375 -26.71875 C 37.171875 -26.09375 36.585938 -25.613281 34.984375 -25.28125 C 33.378906 -24.945312 31.191406 -24.78125 28.421875 -24.78125 C 25.648438 -24.78125 22.71875 -24.953125 19.625 -25.296875 C 14.113281 -26.066406 9.835938 -27.25 6.796875 -28.84375 C 4.921875 -29.769531 3.367188 -31.054688 2.140625 -32.703125 C 0.710938 -34.703125 0.160156 -36.890625 0.484375 -39.265625 C 0.785156 -41.765625 1.5625 -44.070312 2.8125 -46.1875 C 4.882812 -49.65625 7.34375 -52.78125 10.1875 -55.5625 C 15.144531 -60.65625 20.898438 -65.582031 27.453125 -70.34375 C 34.015625 -75.113281 40.8125 -79.53125 47.84375 -83.59375 C 54.882812 -87.65625 61.597656 -91.195312 67.984375 -94.21875 C 70.898438 -95.550781 73.863281 -96.789062 76.875 -97.9375 C 78.300781 -98.5 79.789062 -98.890625 81.34375 -99.109375 C 81.78125 -99.171875 82.171875 -99.171875 82.515625 -99.109375 C 85.398438 -99.253906 86.601562 -97.796875 86.125 -94.734375 C 85.820312 -93.097656 85.375 -91.503906 84.78125 -89.953125 Z M 84.78125 -89.953125 "/></g></g></g><g fill="#000000" fill-opacity="1"><g transform="translate(136.412903, 226.254698)"><g/></g></g><g fill="#000000" fill-opacity="1"><g transform="translate(158.023942, 226.254698)"><g><path d="M 14.625 -14.421875 C 15.289062 -15.085938 15.84375 -15.457031 16.28125 -15.53125 C 16.726562 -15.613281 17.015625 -15.546875 17.140625 -15.328125 C 17.273438 -15.109375 17.191406 -14.804688 16.890625 -14.421875 C 15.117188 -12.285156 13.132812 -10.441406 10.9375 -8.890625 C 8.738281 -7.335938 6.476562 -6.4375 4.15625 -6.1875 C 1.832031 -5.945312 0.425781 -7.21875 -0.0625 -10 C -0.425781 -12.757812 1.242188 -18.378906 4.953125 -26.859375 C 8.660156 -35.347656 11.59375 -42.304688 13.75 -47.734375 C 13.9375 -48.210938 14.207031 -48.632812 14.5625 -49 C 15.050781 -49.476562 15.628906 -49.585938 16.296875 -49.328125 C 16.515625 -49.234375 16.734375 -49.070312 16.953125 -48.84375 C 17.179688 -48.625 17.253906 -48.234375 17.171875 -47.671875 C 7.640625 -25.054688 3.023438 -12.757812 3.328125 -10.78125 C 3.628906 -8.8125 4.898438 -8.328125 7.140625 -9.328125 C 9.390625 -10.328125 11.125 -11.34375 12.34375 -12.375 C 13.5625 -13.414062 14.320312 -14.097656 14.625 -14.421875 Z M 14.625 -14.421875 "/></g></g></g><g fill="#000000" fill-opacity="1"><g transform="translate(171.867458, 226.254698)"><g><path d="M 4.8125 -7.15625 L 4.71875 -7.15625 C 1.789062 -7.195312 -0.132812 -7.847656 -1.0625 -9.109375 C -1.988281 -10.367188 -1.945312 -12.046875 -0.9375 -14.140625 C -0.09375 -15.734375 0.972656 -17.125 2.265625 -18.3125 C 2.710938 -18.71875 3.164062 -19.039062 3.625 -19.28125 C 4.09375 -19.519531 4.617188 -19.640625 5.203125 -19.640625 C 5.546875 -19.703125 5.9375 -19.644531 6.375 -19.46875 C 6.519531 -19.425781 6.660156 -19.375 6.796875 -19.3125 C 7.140625 -19.375 7.472656 -19.484375 7.796875 -19.640625 C 7.878906 -19.703125 7.988281 -19.753906 8.125 -19.796875 C 8.789062 -20.054688 9.5 -20.164062 10.25 -20.125 C 10.550781 -20.125 10.863281 -20.125 11.1875 -20.125 C 12.375 -19.945312 13.269531 -19.445312 13.875 -18.625 C 14.476562 -17.8125 14.691406 -16.820312 14.515625 -15.65625 C 14.410156 -14.945312 14.1875 -14.28125 13.84375 -13.65625 C 11.53125 -9.507812 8.578125 -7.34375 4.984375 -7.15625 Z M 9.578125 -17.984375 C 7.984375 -18.046875 6.566406 -17.585938 5.328125 -16.609375 C 4.085938 -15.628906 3.164062 -14.503906 2.5625 -13.234375 C 1.957031 -11.960938 1.789062 -10.921875 2.0625 -10.109375 C 2.34375 -9.296875 3.1875 -9.070312 4.59375 -9.4375 C 6.1875 -9.914062 7.59375 -10.816406 8.8125 -12.140625 C 10.03125 -13.472656 10.773438 -14.738281 11.046875 -15.9375 C 11.316406 -17.144531 10.828125 -17.828125 9.578125 -17.984375 Z M 9.578125 -17.984375 "/></g></g></g><g fill="#000000" fill-opacity="1"><g transform="translate(186.678126, 226.254698)"><g><path d="M 19.28125 -25.453125 C 19.101562 -25.003906 18.882812 -24.582031 18.625 -24.1875 C 15.332031 -18.863281 11.601562 -13.914062 7.4375 -9.34375 C 6.875 -8.675781 6.257812 -8.082031 5.59375 -7.5625 C 4.96875 -7.113281 4.300781 -6.800781 3.59375 -6.625 C 1.601562 -6.28125 0.445312 -7.078125 0.125 -9.015625 C 0.0390625 -10.222656 0.0390625 -11.421875 0.125 -12.609375 C 0.125 -13.148438 0.125 -13.679688 0.125 -14.203125 C 0.125 -14.203125 0.15625 -14.203125 0.21875 -14.203125 C 0.21875 -14.566406 0.21875 -14.921875 0.21875 -15.265625 C 0.21875 -16.148438 0.21875 -17.035156 0.21875 -17.921875 C 0.21875 -18.410156 0.234375 -18.90625 0.265625 -19.40625 C 0.492188 -20.507812 1.050781 -21.082031 1.9375 -21.125 C 2.90625 -21.082031 3.4375 -20.398438 3.53125 -19.078125 C 3.53125 -18.710938 3.503906 -18.378906 3.453125 -18.078125 C 3.410156 -17.753906 3.390625 -17.460938 3.390625 -17.203125 C 3.304688 -15.242188 3.242188 -13.269531 3.203125 -11.28125 C 3.203125 -10.832031 3.394531 -10.566406 3.78125 -10.484375 C 3.914062 -10.484375 4.039062 -10.515625 4.15625 -10.578125 C 4.269531 -10.640625 4.363281 -10.722656 4.4375 -10.828125 C 5.613281 -12.191406 6.753906 -13.5625 7.859375 -14.9375 C 8.304688 -15.476562 8.75 -16.007812 9.1875 -16.53125 C 9.675781 -17.15625 10.160156 -17.75 10.640625 -18.3125 C 12.554688 -20.71875 14.476562 -23.097656 16.40625 -25.453125 C 16.632812 -25.753906 16.894531 -26.015625 17.1875 -26.234375 C 17.476562 -26.453125 17.84375 -26.5625 18.28125 -26.5625 C 18.644531 -26.53125 18.957031 -26.398438 19.21875 -26.171875 C 19.300781 -26.097656 19.34375 -25.988281 19.34375 -25.84375 C 19.34375 -25.707031 19.320312 -25.578125 19.28125 -25.453125 Z M 19.28125 -25.453125 "/></g></g></g><g fill="#000000" fill-opacity="1"><g transform="translate(201.519029, 226.254698)"><g><path d="M 17.234375 -11.609375 C 16.066406 -10.460938 14.707031 -9.476562 13.15625 -8.65625 C 11.601562 -7.84375 10.300781 -7.3125 9.25 -7.0625 C 8.195312 -6.8125 7.117188 -6.664062 6.015625 -6.625 C 4.242188 -6.539062 2.613281 -6.78125 1.125 -7.34375 C -1.320312 -8.332031 -2.171875 -10.21875 -1.421875 -13 C -0.710938 -15.394531 0.71875 -17.265625 2.875 -18.609375 C 5.03125 -19.960938 7.253906 -20.617188 9.546875 -20.578125 C 9.546875 -20.578125 9.566406 -20.578125 9.609375 -20.578125 C 10.191406 -20.617188 10.75 -20.582031 11.28125 -20.46875 C 12.164062 -20.144531 12.726562 -19.617188 12.96875 -18.890625 C 13.207031 -18.160156 13.046875 -17.351562 12.484375 -16.46875 C 11.191406 -14.519531 9.4375 -13.429688 7.21875 -13.203125 C 5.75 -13.066406 4.332031 -13.140625 2.96875 -13.421875 C 2.695312 -13.460938 2.460938 -13.390625 2.265625 -13.203125 C 2.066406 -13.023438 1.945312 -12.804688 1.90625 -12.546875 C 1.5 -10.804688 2.03125 -9.695312 3.5 -9.21875 C 5.320312 -8.59375 7.207031 -8.59375 9.15625 -9.21875 C 11.414062 -9.925781 13.5625 -11.253906 15.59375 -13.203125 C 17.632812 -15.160156 18.8125 -16.070312 19.125 -15.9375 C 19.4375 -15.8125 19.53125 -15.4375 19.40625 -14.8125 C 19.125 -13.820312 18.398438 -12.753906 17.234375 -11.609375 Z M 4.359375 -16.46875 C 4.234375 -16.332031 4.144531 -16.175781 4.09375 -16 C 4.039062 -15.832031 4.109375 -15.675781 4.296875 -15.53125 C 4.992188 -15.132812 5.753906 -14.988281 6.578125 -15.09375 C 7.410156 -15.207031 8.113281 -15.519531 8.6875 -16.03125 C 9.257812 -16.550781 9.507812 -17.179688 9.4375 -17.921875 C 9.375 -18.179688 9.226562 -18.347656 9 -18.421875 C 8.78125 -18.492188 8.5625 -18.507812 8.34375 -18.46875 C 6.851562 -18.207031 5.523438 -17.539062 4.359375 -16.46875 Z M 4.359375 -16.46875 "/></g></g></g><g fill="#000000" fill-opacity="1"><g transform="translate(217.871124, 226.254698)"><g/></g></g><g fill="#000000" fill-opacity="1"><g transform="translate(239.482169, 226.254698)"><g><path d="M 23.71875 -15.765625 C 23.988281 -15.253906 23.554688 -14.46875 22.421875 -13.40625 C 21.296875 -12.34375 19.3125 -11.054688 16.46875 -9.546875 C 15.40625 -9.109375 14.628906 -8.753906 14.140625 -8.484375 C 13.660156 -8.222656 13.304688 -7.890625 13.078125 -7.484375 C 12.859375 -7.085938 12.617188 -6.46875 12.359375 -5.625 C 12.140625 -5 11.847656 -4.160156 11.484375 -3.109375 C 11.003906 -1.816406 10.519531 -0.488281 10.03125 0.875 C 9.144531 3.675781 8.09375 6.441406 6.875 9.171875 C 5.65625 11.898438 4.078125 14.28125 2.140625 16.3125 C 0.210938 18.351562 -2.269531 19.707031 -5.3125 20.375 C -8.382812 20.957031 -11.347656 21.046875 -14.203125 20.640625 C -17.066406 20.242188 -19.867188 19.445312 -22.609375 18.25 C -23.710938 17.75 -24.710938 17.085938 -25.609375 16.265625 C -27.078125 14.753906 -27.1875 13.0625 -25.9375 11.1875 C -25.269531 10.257812 -24.492188 9.421875 -23.609375 8.671875 C -21.835938 7.242188 -19.984375 5.9375 -18.046875 4.75 C -14.441406 2.570312 -10.753906 0.578125 -6.984375 -1.234375 C -3.210938 -3.046875 0.59375 -4.800781 4.4375 -6.5 C 4.707031 -6.625 5 -6.753906 5.3125 -6.890625 C 6.363281 -7.378906 7.441406 -7.863281 8.546875 -8.34375 C 9.316406 -8.625 9.832031 -9.140625 10.09375 -9.890625 C 10.175781 -10.148438 10.195312 -10.390625 10.15625 -10.609375 C 10.113281 -10.753906 10.035156 -10.832031 9.921875 -10.84375 C 9.816406 -10.863281 9.691406 -10.835938 9.546875 -10.765625 C 9.171875 -10.535156 8.78125 -10.28125 8.375 -10 C 8.15625 -9.882812 7.910156 -9.734375 7.640625 -9.546875 C 6.253906 -8.742188 4.816406 -8.394531 3.328125 -8.5 C 0.960938 -8.5 -0.234375 -9.554688 -0.265625 -11.671875 C -0.304688 -13.398438 -0.0078125 -15.039062 0.625 -16.59375 C 1.257812 -18.144531 2.160156 -19.609375 3.328125 -20.984375 C 3.441406 -21.117188 3.609375 -21.234375 3.828125 -21.328125 C 4.054688 -21.421875 4.28125 -21.484375 4.5 -21.515625 C 4.539062 -21.515625 4.59375 -21.535156 4.65625 -21.578125 C 5.09375 -21.617188 5.429688 -21.507812 5.671875 -21.25 C 5.921875 -20.988281 5.972656 -20.65625 5.828125 -20.25 C 5.566406 -19.6875 5.304688 -19.113281 5.046875 -18.53125 C 4.828125 -18.082031 4.609375 -17.640625 4.390625 -17.203125 C 3.492188 -15.460938 3.085938 -13.648438 3.171875 -11.765625 C 3.210938 -11.359375 3.390625 -11.0625 3.703125 -10.875 C 4.015625 -10.695312 4.375 -10.695312 4.78125 -10.875 C 5.96875 -11.363281 7.003906 -12.050781 7.890625 -12.9375 C 10.285156 -15.113281 12.257812 -17.625 13.8125 -20.46875 C 14.03125 -20.863281 14.285156 -21.203125 14.578125 -21.484375 C 14.867188 -21.773438 15.257812 -21.9375 15.75 -21.96875 C 16.375 -22.03125 16.851562 -21.894531 17.1875 -21.5625 C 17.519531 -21.226562 17.613281 -20.789062 17.46875 -20.25 C 16.90625 -18.4375 16.3125 -16.644531 15.6875 -14.875 C 15.644531 -14.726562 15.59375 -14.597656 15.53125 -14.484375 C 15.375 -14.078125 15.222656 -13.648438 15.078125 -13.203125 C 14.941406 -12.765625 14.875 -12.378906 14.875 -12.046875 C 14.875 -11.710938 15.015625 -11.546875 15.296875 -11.546875 C 16.398438 -11.765625 18.015625 -12.648438 20.140625 -14.203125 C 22.265625 -15.753906 23.457031 -16.273438 23.71875 -15.765625 Z M 7.890625 -3.625 C 7.890625 -3.726562 7.921875 -3.820312 7.984375 -3.90625 C 8.097656 -4.125 8.164062 -4.363281 8.1875 -4.625 C 8.207031 -4.882812 8.140625 -5.15625 7.984375 -5.4375 C 7.835938 -5.4375 7.722656 -5.4375 7.640625 -5.4375 C 7.359375 -5.375 7.109375 -5.304688 6.890625 -5.234375 C 6.453125 -5.046875 6.007812 -4.84375 5.5625 -4.625 C 2.007812 -2.988281 -1.535156 -1.304688 -5.078125 0.421875 C -8.617188 2.148438 -12.09375 3.992188 -15.5 5.953125 C -17.582031 7.140625 -19.539062 8.53125 -21.375 10.125 C -22.863281 11.457031 -23.578125 12.617188 -23.515625 13.609375 C -23.453125 14.609375 -22.578125 15.515625 -20.890625 16.328125 C -17.035156 18.316406 -12.894531 19.128906 -8.46875 18.765625 C -5.4375 18.460938 -2.976562 17.320312 -1.09375 15.34375 C 0.78125 13.375 2.316406 11.015625 3.515625 8.265625 C 4.710938 5.515625 5.757812 2.769531 6.65625 0.03125 C 7.03125 -1.257812 7.441406 -2.476562 7.890625 -3.625 Z M 7.890625 -3.625 "/></g></g></g><g fill="#000000" fill-opacity="1"><g transform="translate(260.246946, 226.254698)"><g><path d="M 4.8125 -7.15625 L 4.71875 -7.15625 C 1.789062 -7.195312 -0.132812 -7.847656 -1.0625 -9.109375 C -1.988281 -10.367188 -1.945312 -12.046875 -0.9375 -14.140625 C -0.09375 -15.734375 0.972656 -17.125 2.265625 -18.3125 C 2.710938 -18.71875 3.164062 -19.039062 3.625 -19.28125 C 4.09375 -19.519531 4.617188 -19.640625 5.203125 -19.640625 C 5.546875 -19.703125 5.9375 -19.644531 6.375 -19.46875 C 6.519531 -19.425781 6.660156 -19.375 6.796875 -19.3125 C 7.140625 -19.375 7.472656 -19.484375 7.796875 -19.640625 C 7.878906 -19.703125 7.988281 -19.753906 8.125 -19.796875 C 8.789062 -20.054688 9.5 -20.164062 10.25 -20.125 C 10.550781 -20.125 10.863281 -20.125 11.1875 -20.125 C 12.375 -19.945312 13.269531 -19.445312 13.875 -18.625 C 14.476562 -17.8125 14.691406 -16.820312 14.515625 -15.65625 C 14.410156 -14.945312 14.1875 -14.28125 13.84375 -13.65625 C 11.53125 -9.507812 8.578125 -7.34375 4.984375 -7.15625 Z M 9.578125 -17.984375 C 7.984375 -18.046875 6.566406 -17.585938 5.328125 -16.609375 C 4.085938 -15.628906 3.164062 -14.503906 2.5625 -13.234375 C 1.957031 -11.960938 1.789062 -10.921875 2.0625 -10.109375 C 2.34375 -9.296875 3.1875 -9.070312 4.59375 -9.4375 C 6.1875 -9.914062 7.59375 -10.816406 8.8125 -12.140625 C 10.03125 -13.472656 10.773438 -14.738281 11.046875 -15.9375 C 11.316406 -17.144531 10.828125 -17.828125 9.578125 -17.984375 Z M 9.578125 -17.984375 "/></g></g></g><g fill="#000000" fill-opacity="1"><g transform="translate(275.057614, 226.254698)"><g><path d="M 0.75 -5.34375 C -1.15625 -5.34375 -2.109375 -6.34375 -2.109375 -8.34375 C -2.109375 -10.78125 -0.53125 -15.082031 2.625 -21.25 C 2.75 -21.507812 2.972656 -21.640625 3.296875 -21.640625 C 4.566406 -21.640625 5.203125 -21.132812 5.203125 -20.125 C 5.203125 -19.769531 5.085938 -19.328125 4.859375 -18.796875 C 4.785156 -18.660156 3.726562 -16.003906 1.6875 -10.828125 C 1.363281 -9.972656 1.203125 -9.347656 1.203125 -8.953125 C 1.203125 -8.503906 1.40625 -8.28125 1.8125 -8.28125 C 3.28125 -8.28125 7.140625 -11.9375 13.390625 -19.25 C 14.191406 -20.238281 14.988281 -20.734375 15.78125 -20.734375 C 16.925781 -20.734375 17.5 -20.3125 17.5 -19.46875 C 17.5 -19.144531 17.144531 -17.925781 16.4375 -15.8125 C 15.476562 -12.925781 15 -11.265625 15 -10.828125 C 15 -10.160156 15.21875 -9.828125 15.65625 -9.828125 C 16.769531 -9.828125 20.003906 -11.800781 25.359375 -15.75 C 25.660156 -16.007812 25.921875 -16.140625 26.140625 -16.140625 C 26.648438 -16.140625 26.90625 -15.71875 26.90625 -14.875 C 26.90625 -14.65625 26.832031 -14.472656 26.6875 -14.328125 C 23.84375 -11.890625 21.425781 -10.035156 19.4375 -8.765625 C 17.625 -7.597656 16.007812 -7.015625 14.59375 -7.015625 L 14.171875 -7.015625 C 12.097656 -7.453125 11.0625 -9.070312 11.0625 -11.875 C 8.84375 -9.925781 7.003906 -8.347656 5.546875 -7.140625 C 4.085938 -5.941406 2.488281 -5.34375 0.75 -5.34375 Z M 0.75 -5.34375 "/></g></g></g><g fill="#000000" fill-opacity="1"><g transform="translate(101.275241, 299.977276)"><g><path d="M 7.78125 0.28125 C 6.445312 0.28125 5.257812 -0.046875 4.21875 -0.703125 C 3.1875 -1.367188 2.375 -2.320312 1.78125 -3.5625 C 1.1875 -4.8125 0.890625 -6.304688 0.890625 -8.046875 C 0.890625 -9.773438 1.1875 -11.257812 1.78125 -12.5 C 2.375 -13.75 3.1875 -14.703125 4.21875 -15.359375 C 5.257812 -16.023438 6.445312 -16.359375 7.78125 -16.359375 C 9.113281 -16.359375 10.300781 -16.023438 11.34375 -15.359375 C 12.382812 -14.703125 13.195312 -13.75 13.78125 -12.5 C 14.375 -11.257812 14.671875 -9.773438 14.671875 -8.046875 C 14.671875 -6.304688 14.375 -4.8125 13.78125 -3.5625 C 13.195312 -2.320312 12.382812 -1.367188 11.34375 -0.703125 C 10.300781 -0.046875 9.113281 0.28125 7.78125 0.28125 Z M 7.78125 -2.875 C 8.757812 -2.875 9.53125 -3.289062 10.09375 -4.125 C 10.65625 -4.96875 10.9375 -6.273438 10.9375 -8.046875 C 10.9375 -9.804688 10.65625 -11.101562 10.09375 -11.9375 C 9.53125 -12.78125 8.757812 -13.203125 7.78125 -13.203125 C 6.820312 -13.203125 6.0625 -12.78125 5.5 -11.9375 C 4.9375 -11.101562 4.65625 -9.804688 4.65625 -8.046875 C 4.65625 -6.273438 4.9375 -4.96875 5.5 -4.125 C 6.0625 -3.289062 6.820312 -2.875 7.78125 -2.875 Z M 7.78125 -2.875 "/></g></g></g><g fill="#000000" fill-opacity="1"><g transform="translate(121.466715, 299.977276)"><g><path d="M 8.640625 -10.078125 C 9.660156 -10.078125 10.59375 -9.867188 11.4375 -9.453125 C 12.28125 -9.046875 12.945312 -8.460938 13.4375 -7.703125 C 13.925781 -6.941406 14.171875 -6.066406 14.171875 -5.078125 C 14.171875 -4.003906 13.898438 -3.0625 13.359375 -2.25 C 12.828125 -1.4375 12.097656 -0.8125 11.171875 -0.375 C 10.242188 0.0625 9.210938 0.28125 8.078125 0.28125 C 5.828125 0.28125 4.066406 -0.40625 2.796875 -1.78125 C 1.523438 -3.164062 0.890625 -5.132812 0.890625 -7.6875 C 0.890625 -9.507812 1.234375 -11.070312 1.921875 -12.375 C 2.617188 -13.675781 3.582031 -14.664062 4.8125 -15.34375 C 6.039062 -16.019531 7.46875 -16.359375 9.09375 -16.359375 C 9.945312 -16.359375 10.769531 -16.257812 11.5625 -16.0625 C 12.351562 -15.875 13.023438 -15.601562 13.578125 -15.25 L 12.203125 -12.515625 C 11.398438 -13.054688 10.394531 -13.328125 9.1875 -13.328125 C 7.820312 -13.328125 6.738281 -12.925781 5.9375 -12.125 C 5.144531 -11.332031 4.71875 -10.175781 4.65625 -8.65625 C 5.613281 -9.601562 6.941406 -10.078125 8.640625 -10.078125 Z M 7.875 -2.5 C 8.675781 -2.5 9.320312 -2.710938 9.8125 -3.140625 C 10.3125 -3.578125 10.5625 -4.160156 10.5625 -4.890625 C 10.5625 -5.628906 10.3125 -6.210938 9.8125 -6.640625 C 9.320312 -7.078125 8.660156 -7.296875 7.828125 -7.296875 C 7.015625 -7.296875 6.347656 -7.070312 5.828125 -6.625 C 5.304688 -6.175781 5.046875 -5.597656 5.046875 -4.890625 C 5.046875 -4.179688 5.296875 -3.601562 5.796875 -3.15625 C 6.304688 -2.71875 7 -2.5 7.875 -2.5 Z M 7.875 -2.5 "/></g></g></g><g fill="#000000" fill-opacity="1"><g transform="translate(140.6935, 299.977276)"><g><path d="M 1.1875 -7.90625 L 7.6875 -7.90625 L 7.6875 -5.03125 L 1.1875 -5.03125 Z M 1.1875 -7.90625 "/></g></g></g><g fill="#000000" fill-opacity="1"><g transform="translate(154.155107, 299.977276)"><g><path d="M 7.09375 -16.078125 L 7.09375 0 L 3.375 0 L 3.375 -13.09375 L 0.15625 -13.09375 L 0.15625 -16.078125 Z M 7.09375 -16.078125 "/></g></g></g><g fill="#000000" fill-opacity="1"><g transform="translate(167.754521, 299.977276)"><g><path d="M 7.78125 0.28125 C 6.445312 0.28125 5.257812 -0.046875 4.21875 -0.703125 C 3.1875 -1.367188 2.375 -2.320312 1.78125 -3.5625 C 1.1875 -4.8125 0.890625 -6.304688 0.890625 -8.046875 C 0.890625 -9.773438 1.1875 -11.257812 1.78125 -12.5 C 2.375 -13.75 3.1875 -14.703125 4.21875 -15.359375 C 5.257812 -16.023438 6.445312 -16.359375 7.78125 -16.359375 C 9.113281 -16.359375 10.300781 -16.023438 11.34375 -15.359375 C 12.382812 -14.703125 13.195312 -13.75 13.78125 -12.5 C 14.375 -11.257812 14.671875 -9.773438 14.671875 -8.046875 C 14.671875 -6.304688 14.375 -4.8125 13.78125 -3.5625 C 13.195312 -2.320312 12.382812 -1.367188 11.34375 -0.703125 C 10.300781 -0.046875 9.113281 0.28125 7.78125 0.28125 Z M 7.78125 -2.875 C 8.757812 -2.875 9.53125 -3.289062 10.09375 -4.125 C 10.65625 -4.96875 10.9375 -6.273438 10.9375 -8.046875 C 10.9375 -9.804688 10.65625 -11.101562 10.09375 -11.9375 C 9.53125 -12.78125 8.757812 -13.203125 7.78125 -13.203125 C 6.820312 -13.203125 6.0625 -12.78125 5.5 -11.9375 C 4.9375 -11.101562 4.65625 -9.804688 4.65625 -8.046875 C 4.65625 -6.273438 4.9375 -4.96875 5.5 -4.125 C 6.0625 -3.289062 6.820312 -2.875 7.78125 -2.875 Z M 7.78125 -2.875 "/></g></g></g><g fill="#000000" fill-opacity="1"><g transform="translate(187.945995, 299.977276)"><g><path d="M 1.1875 -7.90625 L 7.6875 -7.90625 L 7.6875 -5.03125 L 1.1875 -5.03125 Z M 1.1875 -7.90625 "/></g></g></g><g fill="#000000" fill-opacity="1"><g transform="translate(201.407604, 299.977276)"><g><path d="M 12.90625 -3.03125 L 12.90625 0 L 0.765625 0 L 0.765625 -2.40625 L 6.953125 -8.265625 C 7.617188 -8.890625 8.066406 -9.425781 8.296875 -9.875 C 8.523438 -10.332031 8.640625 -10.785156 8.640625 -11.234375 C 8.640625 -11.878906 8.421875 -12.375 7.984375 -12.71875 C 7.546875 -13.0625 6.90625 -13.234375 6.0625 -13.234375 C 5.351562 -13.234375 4.71875 -13.097656 4.15625 -12.828125 C 3.59375 -12.554688 3.117188 -12.15625 2.734375 -11.625 L 0.015625 -13.375 C 0.648438 -14.300781 1.515625 -15.03125 2.609375 -15.5625 C 3.710938 -16.09375 4.976562 -16.359375 6.40625 -16.359375 C 7.601562 -16.359375 8.648438 -16.160156 9.546875 -15.765625 C 10.441406 -15.378906 11.132812 -14.828125 11.625 -14.109375 C 12.125 -13.398438 12.375 -12.5625 12.375 -11.59375 C 12.375 -10.726562 12.191406 -9.910156 11.828125 -9.140625 C 11.460938 -8.378906 10.75 -7.503906 9.6875 -6.515625 L 6 -3.03125 Z M 12.90625 -3.03125 "/></g></g></g><g fill="#000000" fill-opacity="1"><g transform="translate(219.554854, 299.977276)"><g><path d="M 7.78125 0.28125 C 6.445312 0.28125 5.257812 -0.046875 4.21875 -0.703125 C 3.1875 -1.367188 2.375 -2.320312 1.78125 -3.5625 C 1.1875 -4.8125 0.890625 -6.304688 0.890625 -8.046875 C 0.890625 -9.773438 1.1875 -11.257812 1.78125 -12.5 C 2.375 -13.75 3.1875 -14.703125 4.21875 -15.359375 C 5.257812 -16.023438 6.445312 -16.359375 7.78125 -16.359375 C 9.113281 -16.359375 10.300781 -16.023438 11.34375 -15.359375 C 12.382812 -14.703125 13.195312 -13.75 13.78125 -12.5 C 14.375 -11.257812 14.671875 -9.773438 14.671875 -8.046875 C 14.671875 -6.304688 14.375 -4.8125 13.78125 -3.5625 C 13.195312 -2.320312 12.382812 -1.367188 11.34375 -0.703125 C 10.300781 -0.046875 9.113281 0.28125 7.78125 0.28125 Z M 7.78125 -2.875 C 8.757812 -2.875 9.53125 -3.289062 10.09375 -4.125 C 10.65625 -4.96875 10.9375 -6.273438 10.9375 -8.046875 C 10.9375 -9.804688 10.65625 -11.101562 10.09375 -11.9375 C 9.53125 -12.78125 8.757812 -13.203125 7.78125 -13.203125 C 6.820312 -13.203125 6.0625 -12.78125 5.5 -11.9375 C 4.9375 -11.101562 4.65625 -9.804688 4.65625 -8.046875 C 4.65625 -6.273438 4.9375 -4.96875 5.5 -4.125 C 6.0625 -3.289062 6.820312 -2.875 7.78125 -2.875 Z M 7.78125 -2.875 "/></g></g></g><g fill="#000000" fill-opacity="1"><g transform="translate(239.746328, 299.977276)"><g><path d="M 12.90625 -3.03125 L 12.90625 0 L 0.765625 0 L 0.765625 -2.40625 L 6.953125 -8.265625 C 7.617188 -8.890625 8.066406 -9.425781 8.296875 -9.875 C 8.523438 -10.332031 8.640625 -10.785156 8.640625 -11.234375 C 8.640625 -11.878906 8.421875 -12.375 7.984375 -12.71875 C 7.546875 -13.0625 6.90625 -13.234375 6.0625 -13.234375 C 5.351562 -13.234375 4.71875 -13.097656 4.15625 -12.828125 C 3.59375 -12.554688 3.117188 -12.15625 2.734375 -11.625 L 0.015625 -13.375 C 0.648438 -14.300781 1.515625 -15.03125 2.609375 -15.5625 C 3.710938 -16.09375 4.976562 -16.359375 6.40625 -16.359375 C 7.601562 -16.359375 8.648438 -16.160156 9.546875 -15.765625 C 10.441406 -15.378906 11.132812 -14.828125 11.625 -14.109375 C 12.125 -13.398438 12.375 -12.5625 12.375 -11.59375 C 12.375 -10.726562 12.191406 -9.910156 11.828125 -9.140625 C 11.460938 -8.378906 10.75 -7.503906 9.6875 -6.515625 L 6 -3.03125 Z M 12.90625 -3.03125 "/></g></g></g><g fill="#000000" fill-opacity="1"><g transform="translate(257.893578, 299.977276)"><g><path d="M 15.625 -3.375 L 13 -3.375 L 13 0 L 9.375 0 L 9.375 -3.375 L 0.71875 -3.375 L 0.71875 -5.875 L 8.296875 -16.078125 L 12.203125 -16.078125 L 5.171875 -6.40625 L 9.484375 -6.40625 L 9.484375 -9.421875 L 13 -9.421875 L 13 -6.40625 L 15.625 -6.40625 Z M 15.625 -3.375 "/></g></g></g></svg>